<?xml version="1.0" encoding="utf-8"?>
<!-- Generator: Adobe Illustrator 26.0.3, SVG Export Plug-In . SVG Version: 6.00 Build 0)  -->
<svg version="1.1" id="Layer_1" xmlns="http://www.w3.org/2000/svg" xmlns:xlink="http://www.w3.org/1999/xlink" x="0px" y="0px"
	 viewBox="0 0 900 900" style="enable-background:new 0 0 900 900;" xml:space="preserve">
<style type="text/css">
	.st0{fill:#009EE2;}
	.st1{fill:#FFFFFF;}
</style>
<g id="Group_1214" transform="translate(2769.207 211.253)">
	
		<rect id="Rectangle_764" x="-2630.2" y="-71.9" transform="matrix(0.7071 -0.7071 0.7071 0.7071 -848.4141 -1569.9082)" class="st0" width="622.1" height="622.1"/>
	<g>
		<path id="Path_531" class="st1" d="M-2452.7,327.7c34.7,21.1,73.7,34.2,114.2,38.3c64.1,5.4,118.8-41.5,166-40.7
			c47.2,0.8,41.8,20.2,41.8,20.2c-14.7-13-36.6-13.8-52.3-2c-29.2,23.3-41.2,39.1-115.9,47.6c-2.5,0.3,6.8,12.9,41.7,15.9
			c25.4,0.3,50.5-5.9,72.9-18c0,0-34.6,50.8-80.4,50.3c-59.2-0.7-81.9-38.7-121.1-59.7C-2449.3,345.4-2452.6,327.7-2452.7,327.7"/>
		<path class="st1" d="M-2112.1,153c0,0,16.5,30.2,13.7,49.5c-0.4,14.5-11.7,26.3-26.1,27.5c-23.4,2-50.8-28.9-71.5-42.6
			c-22.5-14.1-47.8-23-74.1-26.1c-25.8-2.8-34.4-12.4-28.9-28.9c5.5-16.5,68.7-22,68.7-22s-53.6-22.6-167.6-7.5
			c-114,15.1-163.8,87.4-161.3,114.9c2.5,27.5,40.8,49.1,69.6,36.7c28.9-12.4,29.1-29.3,29.1-29.3s-34.9,18.9-38.8-4.4
			c-3-18.1,30.4-49.8,98.6-59.5l0,0c40.5-5.7,78.3,4,106.7,15.7c-0.4,0.2-0.7,0.3-1.1,0.5c-28.7-8-58.8-10-88.3-6
			c-52.2,6.9-64.8,40.7-64.8,40.7l0.1,0c0,0,14.4-7.5,22.6-1.4c5.5,4.1,5.6,34.5,5.6,34.5l0.1,0c1.2,30.4,17.1,59.7,45.1,76.7
			c14.8,9,31.7,13.8,49,13.8l0,0c52,0,94.2-42.2,94.1-94.2c0-12.6-2.6-25-7.4-36.5c40.2-1.4,60.3,40.5,76.3,59.2
			c4.3,3.9,9.3,7.1,14.6,9.4c28.5,12.7,61.9-0.1,74.6-28.5C-2053.9,201.3-2112.1,153-2112.1,153z M-2332,299.8
			C-2332,299.8-2332,299.8-2332,299.8c-33.5,0-60.6-27.2-60.6-60.6c0,0,0,0,0,0c0-33.5,27.2-60.6,60.7-60.6
			c33.5,0,60.6,27.2,60.6,60.7C-2271.4,272.6-2298.5,299.8-2332,299.8z"/>
	</g>
</g>
</svg>
